<svg width="182" height="19" viewBox="0 0 182 19" fill="none" xmlns="http://www.w3.org/2000/svg">
<path d="M10.9858 6.06534C10.9176 5.37784 10.625 4.84375 10.108 4.46307C9.59091 4.08239 8.8892 3.89204 8.00284 3.89204C7.40057 3.89204 6.89205 3.97727 6.47727 4.14773C6.0625 4.3125 5.74432 4.54261 5.52273 4.83807C5.30682 5.13352 5.19886 5.46875 5.19886 5.84375C5.1875 6.15625 5.25284 6.42898 5.39489 6.66193C5.54261 6.89489 5.74432 7.09659 6 7.26705C6.25568 7.43182 6.55114 7.5767 6.88636 7.7017C7.22159 7.82102 7.57955 7.9233 7.96023 8.00852L9.52841 8.38352C10.2898 8.55398 10.9886 8.78125 11.625 9.06534C12.2614 9.34943 12.8125 9.69886 13.2784 10.1136C13.7443 10.5284 14.1051 11.017 14.3608 11.5795C14.6222 12.142 14.7557 12.7869 14.7614 13.5142C14.7557 14.5824 14.483 15.5085 13.9432 16.2926C13.4091 17.071 12.6364 17.6761 11.625 18.108C10.6193 18.5341 9.40625 18.7472 7.9858 18.7472C6.5767 18.7472 5.34943 18.5312 4.30398 18.0994C3.2642 17.6676 2.4517 17.0284 1.86648 16.1818C1.28693 15.3295 0.982955 14.2756 0.954545 13.0199H4.52557C4.56534 13.6051 4.73295 14.0937 5.02841 14.4858C5.32955 14.8722 5.73011 15.1648 6.23011 15.3636C6.7358 15.5568 7.30682 15.6534 7.94318 15.6534C8.56818 15.6534 9.1108 15.5625 9.57102 15.3807C10.0369 15.1989 10.3977 14.946 10.6534 14.6222C10.9091 14.2983 11.0369 13.9261 11.0369 13.5057C11.0369 13.1136 10.9205 12.7841 10.6875 12.517C10.4602 12.25 10.125 12.0227 9.68182 11.8352C9.24432 11.6477 8.70739 11.4773 8.07102 11.3239L6.17045 10.8466C4.69886 10.4886 3.53693 9.92898 2.68466 9.16761C1.83239 8.40625 1.40909 7.38068 1.41477 6.09091C1.40909 5.03409 1.69034 4.1108 2.25852 3.32102C2.83239 2.53125 3.61932 1.91477 4.61932 1.47159C5.61932 1.02841 6.75568 0.806818 8.02841 0.806818C9.32386 0.806818 10.4545 1.02841 11.4205 1.47159C12.392 1.91477 13.1477 2.53125 13.6875 3.32102C14.2273 4.1108 14.5057 5.02557 14.5227 6.06534H10.9858ZM20.9339 1.04545V18.5H17.2436V1.04545H20.9339ZM23.9702 18.5V1.04545H27.6605V15.4574H35.1435V18.5H23.9702ZM38.8658 1.04545L43.0845 14.3068H43.2464L47.4737 1.04545H51.5646L45.5476 18.5H40.7919L34.7663 1.04545H38.8658ZM54.3537 18.5H50.3991L56.4247 1.04545H61.1804L67.1974 18.5H63.2429L58.8707 5.03409H58.7344L54.3537 18.5ZM54.1065 11.6392H63.4474V14.5199H54.1065V11.6392ZM85.4702 18.5V1.04545H97.027V4.08807H89.1605V8.24716H96.2599V11.2898H89.1605V18.5H85.4702ZM100.338 18.5H96.3835L102.409 1.04545H107.165L113.182 18.5H109.227L104.855 5.03409H104.719L100.338 18.5ZM100.091 11.6392H109.432V14.5199H100.091V11.6392ZM129.882 1.04545V18.5H126.695L119.101 7.5142H118.973V18.5H115.283V1.04545H118.521L126.055 12.0227H126.209V1.04545H129.882ZM132.931 18.5V1.04545H144.692V4.08807H136.621V8.24716H144.087V11.2898H136.621V15.4574H144.727V18.5H132.931ZM163.027 7.15625H159.294C159.226 6.6733 159.087 6.24432 158.876 5.86932C158.666 5.48864 158.396 5.16477 158.067 4.89773C157.737 4.63068 157.357 4.42614 156.925 4.28409C156.499 4.14205 156.036 4.07102 155.536 4.07102C154.632 4.07102 153.845 4.29545 153.175 4.74432C152.504 5.1875 151.984 5.83523 151.615 6.6875C151.246 7.53409 151.061 8.5625 151.061 9.77273C151.061 11.017 151.246 12.0625 151.615 12.9091C151.99 13.7557 152.513 14.3949 153.183 14.8267C153.854 15.2585 154.629 15.4744 155.51 15.4744C156.004 15.4744 156.462 15.4091 156.882 15.2784C157.308 15.1477 157.686 14.9574 158.016 14.7074C158.345 14.4517 158.618 14.142 158.834 13.7784C159.055 13.4148 159.209 13 159.294 12.5341L163.027 12.5511C162.93 13.3523 162.689 14.125 162.303 14.8693C161.922 15.608 161.408 16.2699 160.76 16.8551C160.118 17.4347 159.351 17.8949 158.459 18.2358C157.572 18.571 156.57 18.7386 155.45 18.7386C153.893 18.7386 152.501 18.3864 151.274 17.6818C150.053 16.9773 149.087 15.9574 148.376 14.6222C147.672 13.2869 147.32 11.6705 147.32 9.77273C147.32 7.86932 147.678 6.25 148.393 4.91477C149.109 3.57955 150.081 2.5625 151.308 1.86364C152.536 1.15909 153.916 0.806818 155.45 0.806818C156.462 0.806818 157.399 0.948863 158.263 1.23295C159.132 1.51705 159.902 1.93182 160.572 2.47727C161.243 3.01704 161.788 3.67898 162.209 4.46307C162.635 5.24716 162.908 6.14489 163.027 7.15625ZM168.354 18.5H164.399L170.425 1.04545H175.18L181.197 18.5H177.243L172.871 5.03409H172.734L168.354 18.5ZM168.107 11.6392H177.447V14.5199H168.107V11.6392Z" fill="#E6E6E6"/>
<path d="M74.5824 18.7557C73.3778 18.7557 72.3381 18.5398 71.4631 18.108C70.5881 17.6761 69.9148 17.0909 69.4432 16.3523C68.9773 15.608 68.7443 14.7784 68.7443 13.8636C68.7443 13.1818 68.8807 12.5767 69.1534 12.0483C69.4261 11.5199 69.8068 11.0341 70.2955 10.5909C70.7841 10.142 71.3523 9.69602 72 9.25284L75.3835 7.02841C75.821 6.75 76.142 6.45739 76.3466 6.15057C76.5511 5.83807 76.6534 5.5 76.6534 5.13636C76.6534 4.78977 76.5142 4.46875 76.2358 4.17329C75.9574 3.87784 75.5625 3.73295 75.0511 3.73864C74.7102 3.73864 74.4148 3.81534 74.1648 3.96875C73.9148 4.11648 73.7188 4.3125 73.5767 4.55682C73.4403 4.79545 73.3722 5.0625 73.3722 5.35795C73.3722 5.72159 73.4744 6.09091 73.679 6.46591C73.8835 6.84091 74.1563 7.23864 74.4972 7.65909C74.8381 8.07386 75.2102 8.52273 75.6136 9.00568L83.8892 18.5H80.1051L73.2017 10.8125C72.7472 10.2955 72.2926 9.75568 71.8381 9.19318C71.3892 8.625 71.0142 8.02273 70.7131 7.38636C70.4119 6.74432 70.2614 6.04829 70.2614 5.29829C70.2614 4.4517 70.4574 3.69034 70.8494 3.0142C71.2472 2.33807 71.804 1.80398 72.5199 1.41193C73.2358 1.0142 74.071 0.815341 75.0256 0.815341C75.9574 0.815341 76.7614 1.00568 77.4375 1.38636C78.1193 1.76136 78.642 2.26136 79.0057 2.88636C79.375 3.50568 79.5597 4.1875 79.5597 4.93182C79.5597 5.75568 79.3551 6.50284 78.946 7.1733C78.5426 7.83807 77.9744 8.43466 77.2415 8.96307L73.679 11.5284C73.196 11.8807 72.8381 12.2415 72.6051 12.6108C72.3778 12.9744 72.2642 13.3239 72.2642 13.6591C72.2642 14.0739 72.3665 14.446 72.571 14.7756C72.7756 15.1051 73.0653 15.3665 73.4403 15.5597C73.8153 15.7472 74.2557 15.8409 74.7614 15.8409C75.375 15.8409 75.9801 15.7017 76.5767 15.4233C77.179 15.1392 77.7244 14.7386 78.2131 14.2216C78.7074 13.6989 79.1023 13.0795 79.3977 12.3636C79.6932 11.6477 79.8409 10.8551 79.8409 9.9858H82.8494C82.8494 11.054 82.733 12.017 82.5 12.875C82.267 13.7273 81.9432 14.4716 81.5284 15.108C81.1136 15.7386 80.6392 16.2557 80.1051 16.6591C79.9347 16.767 79.7699 16.8693 79.6108 16.9659C79.4517 17.0625 79.2869 17.1648 79.1165 17.2727C78.4688 17.7955 77.7443 18.1733 76.9432 18.4062C76.1477 18.6392 75.3608 18.7557 74.5824 18.7557Z" fill="#D65A31"/>
</svg>
